<?xml version="1.0" encoding="UTF-8"?>
<svg id="Layer_1" data-name="Layer 1" xmlns="http://www.w3.org/2000/svg" viewBox="0 0 131.44 131.44">
  <defs>
    <style>
      .cls-1 {
        font-family: GenSenRoundedTW-H, 'GenSenRounded TW';
        font-size: 43px;
      }

      .cls-1, .cls-2 {
        fill: #7d896d;
      }

      .cls-2, .cls-3 {
        stroke-width: 0px;
      }

      .cls-3 {
        fill: #676b62;
      }
    </style>
  </defs>
  <path class="cls-3" d="M55.94,85.61c2.33,5.48,5.6,11.01,9.75,16.55,4.16-5.54,7.45-11.07,9.78-16.55-6.49-.3-13.05-.3-19.54,0Z"/>
  <path class="cls-3" d="M32.93,87.88c5.45,7.75,13.58,13.38,22.65,15.74-3.92-5.78-7-11.61-9.16-17.36-4.52.39-9.04.93-13.49,1.62Z"/>
  <path class="cls-3" d="M28.35,50.18c-1.86,4.67-2.78,9.58-2.78,14.6s.93,9.96,2.78,14.63c5.18-.87,10.38-1.56,15.44-2.06-1.83-8.32-1.83-16.79,0-25.13-5.09-.48-10.26-1.17-15.44-2.03Z"/>
  <path class="cls-3" d="M52.95,76.66c4.25-.24,8.5-.36,12.75-.36s8.53.12,12.78.36c1.92-7.87,1.92-15.86,0-23.76-8.8.51-16.73.51-25.52,0-1.91,7.9-1.91,15.89,0,23.76Z"/>
  <path class="cls-3" d="M103.07,79.41c1.83-4.67,2.75-9.58,2.75-14.63s-.93-9.93-2.75-14.6c-5.18.87-10.38,1.56-15.44,2.03,1.83,8.35,1.83,16.82,0,25.13,5.06.51,10.26,1.2,15.44,2.06Z"/>
  <path class="cls-3" d="M75.81,25.97c3.95,5.77,7.03,11.61,9.19,17.35,4.52-.39,9.04-.96,13.49-1.62-5.48-7.75-13.58-13.38-22.68-15.74Z"/>
  <path class="cls-3" d="M75.48,43.98c-2.33-5.48-5.63-11.04-9.78-16.55-4.16,5.51-7.42,11.07-9.75,16.55,6.49.3,13.05.3,19.54,0Z"/>
  <path class="cls-2" d="M14.81,43.68c1.27.76,2.92.74,4.08-.24,1.17-.99,1.69-2.82,2.2-4.2l1.86-4.99h15.81l1.86,4.88c.68,1.8,1.52,4.46,3.64,4.97,2.19.52,4.77-1.14,4.77-3.51,0-.87-.4-2.26-1.19-4.17l-10.16-25.1c-.67-1.71-1.22-3.51-2.27-5.04-1.45-2.11-4.25-2.2-6.64-1.33-2.88,1.04-3.73,4.53-4.73,7.08,0,.02-9.95,24.6-9.95,24.6-.95,2.36-1.98,5.41.73,7.04ZM30.77,12.94l5.86,15.4h-11.62l5.76-15.4Z"/>
  <path class="cls-3" d="M65.72,6.82c-6.8,0-13.34,1.19-19.4,3.35l2.8,6.88c5.21-1.82,10.78-2.82,16.6-2.82,27.87,0,50.55,22.68,50.55,50.55,0,7.16-1.5,13.96-4.19,20.12h1.88c2.01,0,3.9.53,5.55,1.44,2.69-6.67,4.17-13.94,4.17-21.56,0-30.22-26.01-57.97-57.97-57.97Z"/>
  <path class="cls-2" d="M15.16,65.44c0-4.17.51-8.24,1.48-12.11-2.6-.02-5.02-.8-7.07-2.33-1.19,4.62-1.82,9.45-1.82,14.44,0,31.96,26.01,57.97,57.97,57.97.78,0,1.59-.02,2.37-.06.23-2.22,1.12-4.32,2.58-6.08.55-.66,1.16-1.25,1.84-1.74-2.22.32-4.49.47-6.8.47-27.89,0-50.55-22.68-50.55-50.55Z"/>
  <text class="cls-1" transform="translate(76.83 123.22)"><tspan x="0" y="0">文</tspan></text>
</svg>